<svg xmlns="http://www.w3.org/2000/svg" width="40" height="40" viewBox="0 0 40 40">
  <g id="Group_17781" data-name="Group 17781" transform="translate(-4803 -2823)">
    <rect id="Rectangle_13911" data-name="Rectangle 13911" width="40" height="40" transform="translate(4803 2823)" fill="#d5d6d7"/>
    <g id="Group_17779" data-name="Group 17779" transform="translate(4815 2832.998)">
      <g id="Group_4" data-name="Group 4">
        <g id="Group_3" data-name="Group 3">
          <path id="Path_31" data-name="Path 31" d="M5.848,13.55a26.922,26.922,0,0,1,4.326,0,17.64,17.64,0,0,1,2.336.293c1.67.338,2.76.89,3.227,1.78a2.468,2.468,0,0,1,0,2.215c-.467.89-1.514,1.477-3.244,1.78a16.869,16.869,0,0,1-2.336.3A19.948,19.948,0,0,1,7.968,20H6.644a6.31,6.31,0,0,0-.8-.053A16,16,0,0,1,3.5,19.653c-1.67-.32-2.76-.89-3.227-1.78A2.44,2.44,0,0,1,0,16.754a2.413,2.413,0,0,1,.268-1.13c.459-.89,1.549-1.468,3.236-1.78a16.965,16.965,0,0,1,2.344-.293ZM8,0a5.326,5.326,0,0,1,5.25,5.4A5.326,5.326,0,0,1,8,10.8,5.328,5.328,0,0,1,2.75,5.4,5.327,5.327,0,0,1,8,0Z" fill="#fff"/>
        </g>
      </g>
    </g>
  </g>
</svg>
